<?xml version="1.0" encoding="utf-8"?>
<!-- Generator: Adobe Illustrator 22.0.0, SVG Export Plug-In . SVG Version: 6.00 Build 0)  -->
<svg version="1.1" id="Capa_1" xmlns="http://www.w3.org/2000/svg" xmlns:xlink="http://www.w3.org/1999/xlink" x="0px" y="0px"
	 viewBox="0 0 24 24" style="enable-background:new 0 0 24 24;" xml:space="preserve">
<g>
	<g>
		<g>
			<path d="M22.1,0H1.9C0.9,0,0,0.9,0,1.9v20.1C0,23.1,0.9,24,1.9,24h20.1c1.1,0,1.9-0.9,1.9-1.9V1.9C24,0.9,23.1,0,22.1,0z
				 M11.3,22.7H1.9c-0.3,0-0.6-0.3-0.6-0.6V1.9c0-0.3,0.3-0.6,0.6-0.6h9.4L11.3,22.7L11.3,22.7z M22.1,22.7h-9.4V1.3h9.4
				c0.3,0,0.6,0.3,0.6,0.6v20.1h0C22.7,22.4,22.4,22.7,22.1,22.7z"/>
		</g>
	</g>
	<g>
		<g>
			<path d="M8.9,12.5c-0.3-0.3-0.7-0.3-0.9,0l-1,1V8.9c0-0.4-0.3-0.7-0.7-0.7S5.7,8.5,5.7,8.9v4.6l-1-1c-0.3-0.3-0.7-0.3-0.9,0
				c-0.3,0.3-0.3,0.7,0,0.9l2.1,2.1c0.1,0.1,0.3,0.2,0.5,0.2s0.3-0.1,0.5-0.2l2.1-2.1C9.2,13.2,9.2,12.8,8.9,12.5z"/>
		</g>
	</g>
	<g>
		<g>
			<path d="M20.2,10.5l-2.1-2.1c-0.1-0.1-0.3-0.2-0.5-0.2s-0.3,0.1-0.5,0.2l-2.1,2.1c-0.3,0.3-0.3,0.7,0,0.9c0.3,0.3,0.7,0.3,0.9,0
				l1-1v4.6c0,0.4,0.3,0.7,0.7,0.7c0.4,0,0.7-0.3,0.7-0.7v-4.6l1,1c0.3,0.3,0.7,0.3,0.9,0C20.5,11.2,20.5,10.8,20.2,10.5z"/>
		</g>
	</g>
</g>
</svg>
